<svg xmlns="http://www.w3.org/2000/svg" width="429" height="429" viewBox="0 0 429 429" version="1.1"><path d="M 233.232 142.114 C 230.885 143.276, 226.756 146.212, 224.057 148.638 C 219.880 152.394, 219.066 152.786, 218.581 151.275 C 217.517 147.955, 213.313 143.999, 210.884 144.031 C 206.228 144.091, 198 158.449, 198 166.511 C 198 168.430, 197.662 169.982, 197.250 169.959 C 196.838 169.936, 194.352 167.011, 191.726 163.459 C 189.101 159.907, 186.274 157, 185.445 157 C 182.217 157, 182.862 160.233, 187.472 167.167 L 192.187 174.258 188.344 173.407 C 177.835 171.083, 165.037 173.630, 162.825 178.485 C 161.810 180.713, 162.047 181.475, 164.837 184.947 C 166.577 187.112, 168 189.157, 168 189.492 C 168 189.828, 166.537 190.717, 164.750 191.468 C 156.519 194.928, 149.175 202.686, 150.604 206.411 C 152.124 210.370, 166.526 214.865, 175.568 214.201 C 179.288 213.928, 179.888 213.471, 182.568 208.861 C 185.397 203.997, 188.647 201.229, 209.500 185.924 C 223.404 175.719, 230.347 172, 235.494 172 C 238.662 172, 240.820 169.113, 242.514 162.607 C 245.018 152.993, 243.873 143.073, 240.022 141.012 C 237.641 139.738, 238.224 139.643, 233.232 142.114 M 261 189.893 C 261 190.384, 261.652 191.036, 262.449 191.342 C 263.418 191.714, 263.714 191.418, 263.342 190.449 C 262.735 188.867, 261 188.455, 261 189.893 M 233 192.819 C 233 194.027, 234.897 195.436, 235.591 194.743 C 235.842 194.491, 235.362 193.716, 234.524 193.020 C 233.574 192.231, 233 192.155, 233 192.819 M 205 209.941 C 205 210.459, 205.450 211.160, 206 211.500 C 206.550 211.840, 207 211.416, 207 210.559 C 207 209.702, 206.550 209, 206 209 C 205.450 209, 205 209.423, 205 209.941 M 254.015 217.536 C 254.043 219.257, 255.871 221.463, 256.636 220.697 C 257.046 220.288, 256.620 219.192, 255.690 218.262 C 254.761 217.332, 254.007 217.005, 254.015 217.536 M 228.015 223.559 C 228.038 224.941, 229.814 227.520, 230.364 226.969 C 230.624 226.710, 230.198 225.624, 229.418 224.557 C 228.638 223.491, 228.007 223.041, 228.015 223.559 M 207 255.878 C 207 256.360, 207.675 257.315, 208.500 258 C 210.128 259.351, 210.332 259.028, 209.393 256.582 C 208.750 254.907, 207 254.392, 207 255.878 M 237 255.941 C 237 256.459, 237.450 257.160, 238 257.500 C 238.550 257.840, 239 257.416, 239 256.559 C 239 255.702, 238.550 255, 238 255 C 237.450 255, 237 255.423, 237 255.941 M 259 267.893 C 259 268.384, 259.652 269.036, 260.449 269.342 C 261.418 269.714, 261.714 269.418, 261.342 268.449 C 260.735 266.867, 259 266.455, 259 267.893" stroke="none" fill="#428b51" fill-rule="evenodd"/><path d="M 264.477 58.394 C 263.615 59.711, 262.654 62.359, 262.342 64.280 C 261.806 67.581, 261.972 67.836, 265.388 68.963 C 267.374 69.619, 269 70.566, 269 71.069 C 269 71.571, 266.510 78.368, 263.467 86.173 C 258.791 98.168, 258.146 100.575, 259.301 101.729 C 261.101 103.530, 269.806 106.123, 270.465 105.056 C 270.930 104.304, 274.857 94.253, 280.131 80.320 L 282.091 75.140 285.633 76.620 C 288.359 77.759, 289.499 77.831, 290.583 76.931 C 292.563 75.288, 294.572 68.172, 293.390 66.990 C 292.583 66.183, 267.625 56, 266.455 56 C 266.230 56, 265.340 57.077, 264.477 58.394 M 219.784 62.693 C 216.957 65.830, 216.578 69.578, 218.858 71.858 C 220.784 73.784, 220.832 74.391, 219.793 83.542 C 218.538 94.588, 218.731 94.959, 225.750 94.985 C 228.088 94.993, 230.043 94.888, 230.095 94.750 C 230.147 94.612, 230.709 90, 231.345 84.500 C 232.407 75.301, 232.680 74.474, 234.750 74.180 C 237.419 73.801, 237.495 74.607, 235.949 86.936 C 234.734 96.621, 234.943 96.961, 242.131 96.985 L 246.761 97 247.997 85.527 C 248.677 79.217, 248.931 72.446, 248.562 70.480 C 247.422 64.404, 239.630 61.289, 232.425 64.028 C 230.350 64.818, 229.346 64.719, 228.110 63.606 C 225.324 61.096, 221.593 60.687, 219.784 62.693 M 188.690 64.097 C 180.973 65.913, 179.347 68.195, 182.531 72.741 C 183.803 74.557, 184.491 74.764, 186.596 73.963 C 189.801 72.745, 194 72.716, 194 73.912 C 194 74.414, 192.184 75.131, 189.965 75.506 C 187.746 75.881, 184.596 77.310, 182.965 78.683 C 180.440 80.807, 180 81.887, 180 85.954 C 180 96.383, 191.001 101.506, 199.329 94.956 C 200.882 93.735, 202.103 93.358, 202.489 93.982 C 203.535 95.674, 210.702 95.220, 211.393 93.418 C 212.900 89.490, 211.985 85.432, 209 82.813 C 207.045 81.097, 206 79.231, 206 77.456 C 206 72.092, 203.706 66.792, 200.551 64.868 C 197.263 62.863, 194.656 62.694, 188.690 64.097 M 164.324 70.072 C 163.127 70.517, 161.171 72.202, 159.977 73.817 C 158.025 76.458, 157.524 76.647, 155.004 75.695 C 152.755 74.847, 151.671 74.986, 149.513 76.400 C 147.318 77.838, 146.944 78.652, 147.480 80.831 C 148.457 84.809, 150.969 88.226, 152.488 87.643 C 153.407 87.290, 154.845 89.696, 157.072 95.315 C 162.183 108.206, 161.229 107.285, 167.141 105.038 C 169.939 103.975, 172.457 102.877, 172.736 102.597 C 173.016 102.317, 171.591 97.955, 169.569 92.904 C 165.719 83.283, 165.603 81, 168.969 81 C 170.549 81, 171 80.348, 171 78.065 C 171 74.287, 169.518 70.412, 167.827 69.768 C 167.097 69.490, 165.521 69.627, 164.324 70.072 M 192.036 83.456 C 190.646 85.131, 191.449 87, 193.559 87 C 194.429 87, 195 86.010, 195 84.500 C 195 81.691, 193.840 81.283, 192.036 83.456 M 126.274 90.093 C 120.889 92.759, 118 97.355, 118 103.255 C 118 112.687, 128.721 122.955, 137 121.452 C 151.055 118.900, 154.497 103.359, 143.342 92.814 C 137.884 87.654, 132.830 86.848, 126.274 90.093 M 294.500 90.167 C 285.452 95.171, 281.280 107.027, 285.901 114.605 C 289.350 120.262, 299.268 124.682, 302.498 122.002 C 304.669 120.200, 304.485 115.001, 302.250 114.996 C 299.686 114.991, 294 111.263, 294 109.587 C 294 108.513, 295.519 108.928, 299.951 111.214 C 305.363 114.005, 306.181 114.168, 308.977 113.010 C 316.061 110.075, 318.310 100.899, 313.381 95.041 C 311.940 93.329, 309.488 91.269, 307.931 90.464 C 304.610 88.747, 297.357 88.587, 294.500 90.167 M 300.524 100.359 C 298.703 101.690, 298.716 101.778, 300.927 102.961 C 303.962 104.585, 306.176 102.747, 303.912 100.483 C 302.626 99.197, 302.137 99.179, 300.524 100.359 M 130.465 101.057 C 128.638 104.013, 134.179 111.243, 136.956 109.527 C 138.773 108.404, 138.087 104.430, 135.686 102.174 C 133.147 99.790, 131.470 99.431, 130.465 101.057 M 83.168 113.750 C 77.089 123.247, 77.082 123.171, 84.949 131.793 C 88.778 135.990, 91.818 139.500, 91.705 139.593 C 91.592 139.687, 87.104 138.974, 81.731 138.010 L 71.962 136.257 69.433 139.262 C 66.844 142.338, 63 149.229, 63 150.792 C 63 151.272, 71.344 156.729, 81.543 162.919 C 101.581 175.081, 101.382 175.030, 104.566 168.872 C 107.311 163.564, 106.631 162.520, 96.500 156.474 C 91.275 153.356, 87 150.690, 87 150.549 C 87 150.409, 91.612 151.343, 97.250 152.626 C 102.888 153.908, 108.487 154.967, 109.693 154.979 C 112.008 155.001, 115 151.627, 115 148.995 C 115 148.137, 111.324 143.470, 106.832 138.624 L 98.663 129.813 108.917 134.958 C 117.322 139.176, 119.438 139.881, 120.658 138.869 C 122.245 137.552, 126 130.711, 126 129.137 C 126 128.222, 88.860 109, 87.091 109 C 86.606 109, 84.840 111.138, 83.168 113.750 M 319.491 115.809 C 314.298 118.241, 309.276 124.013, 308.430 128.522 C 307.514 133.402, 310.303 140.367, 314.434 143.517 C 318.652 146.735, 320.402 146.648, 322.932 143.096 C 325.537 139.437, 325.510 139.017, 322.483 136.145 C 321.117 134.850, 320 133.353, 320 132.818 C 320 131.016, 325.829 126, 327.923 126 C 330.026 126, 330.279 126.507, 330.421 131 C 330.492 133.233, 330.904 133.488, 334.273 133.384 C 340.927 133.179, 343.573 128.912, 340.589 123.200 C 336.309 115.007, 327.669 111.980, 319.491 115.809 M 341.500 142.046 C 331.050 146.382, 322.096 150.080, 321.601 150.264 C 320.420 150.704, 321.654 157.145, 323.368 159.489 C 324.651 161.243, 325.129 161.158, 333.996 157.609 C 339.102 155.566, 343.892 154.128, 344.640 154.415 C 347.941 155.682, 345.418 157.870, 336.500 161.474 C 331.221 163.607, 327 165.901, 327 166.636 C 327 167.364, 327.734 169.794, 328.631 172.036 C 329.834 175.041, 330.688 175.961, 331.881 175.534 C 342.399 171.769, 352.804 166.985, 355.123 164.849 C 358.433 161.799, 358.899 157.639, 356.459 152.921 C 355.612 151.282, 355.120 149.617, 355.366 149.221 C 355.613 148.824, 358.106 147.613, 360.907 146.530 C 364.334 145.204, 366 143.989, 366 142.814 C 366 140.268, 362.809 133.986, 361.565 134.082 C 360.979 134.126, 351.950 137.711, 341.500 142.046 M 237.904 171.084 C 237.132 171.459, 234.271 172.291, 231.548 172.933 C 226.866 174.037, 220.932 177.533, 209.500 185.924 C 188.590 201.271, 185.401 203.990, 182.540 208.910 C 179.799 213.624, 179.281 214.012, 175.540 214.168 L 171.500 214.336 175.297 214.731 C 178.293 215.043, 178.991 215.482, 178.604 216.813 C 174.646 230.428, 180.342 248.289, 191.758 258.061 C 201.271 266.204, 223.785 277.133, 238.941 280.967 C 257.378 285.630, 265.176 284.726, 272.309 277.101 C 275.866 273.298, 277.051 270.995, 278.805 264.475 C 283.500 247.019, 284.143 231.888, 280.976 213.349 C 279.682 205.780, 277.884 199.219, 275.998 195.185 C 272.580 187.878, 264.868 179.838, 257.402 175.799 C 251.957 172.853, 240.145 169.997, 237.904 171.084 M 165.891 187.206 C 166.596 188.145, 166.842 189.495, 166.439 190.206 C 165.849 191.248, 165.970 191.255, 167.060 190.243 C 168.191 189.193, 168.101 188.699, 166.512 187.243 C 164.799 185.674, 164.737 185.670, 165.891 187.206 M 261 189.893 C 261 190.384, 261.652 191.036, 262.449 191.342 C 263.418 191.714, 263.714 191.418, 263.342 190.449 C 262.735 188.867, 261 188.455, 261 189.893 M 233 192.819 C 233 194.027, 234.897 195.436, 235.591 194.743 C 235.842 194.491, 235.362 193.716, 234.524 193.020 C 233.574 192.231, 233 192.155, 233 192.819 M 205 209.941 C 205 210.459, 205.450 211.160, 206 211.500 C 206.550 211.840, 207 211.416, 207 210.559 C 207 209.702, 206.550 209, 206 209 C 205.450 209, 205 209.423, 205 209.941 M 254.015 217.536 C 254.043 219.257, 255.871 221.463, 256.636 220.697 C 257.046 220.288, 256.620 219.192, 255.690 218.262 C 254.761 217.332, 254.007 217.005, 254.015 217.536 M 228.015 223.559 C 228.038 224.941, 229.814 227.520, 230.364 226.969 C 230.624 226.710, 230.198 225.624, 229.418 224.557 C 228.638 223.491, 228.007 223.041, 228.015 223.559 M 207 255.878 C 207 256.360, 207.675 257.315, 208.500 258 C 210.128 259.351, 210.332 259.028, 209.393 256.582 C 208.750 254.907, 207 254.392, 207 255.878 M 237 255.941 C 237 256.459, 237.450 257.160, 238 257.500 C 238.550 257.840, 239 257.416, 239 256.559 C 239 255.702, 238.550 255, 238 255 C 237.450 255, 237 255.423, 237 255.941 M 259 267.893 C 259 268.384, 259.652 269.036, 260.449 269.342 C 261.418 269.714, 261.714 269.418, 261.342 268.449 C 260.735 266.867, 259 266.455, 259 267.893" stroke="none" fill="#d41833" fill-rule="evenodd"/></svg>